<?xml version="1.0" standalone="no"?>
<!DOCTYPE svg PUBLIC "-//W3C//DTD SVG 20010904//EN"
 "http://www.w3.org/TR/2001/REC-SVG-20010904/DTD/svg10.dtd">
<svg version="1.0" xmlns="http://www.w3.org/2000/svg"
 width="512.000000pt" height="512.000000pt" viewBox="0 0 512.000000 512.000000"
 preserveAspectRatio="xMidYMid meet">
<metadata>
Created by potrace 1.14, written by Peter Selinger 2001-2017
</metadata>
<g transform="translate(0.000000,512.000000) scale(0.100000,-0.100000)"
fill="#000000" stroke="none">
<path d="M2398 5115 c-2 -1 -27 -6 -56 -9 -251 -30 -485 -149 -688 -351 -194
-193 -301 -399 -350 -675 -12 -69 -12 -297 1 -380 41 -276 161 -505 369 -703
233 -223 507 -336 826 -341 243 -4 458 52 651 169 94 58 105 66 193 145 311
280 450 652 402 1080 -14 119 -60 275 -116 388 -41 83 -140 219 -222 303 -192
199 -403 312 -668 361 -49 9 -334 20 -342 13z m318 -313 c177 -37 326 -119
467 -259 114 -113 221 -296 242 -413 3 -18 8 -36 10 -40 10 -16 18 -115 18
-220 -2 -253 -88 -455 -273 -640 -191 -192 -392 -274 -665 -274 -82 1 -193 12
-215 23 -8 5 -30 11 -48 14 -140 27 -356 179 -477 337 -131 171 -181 334 -178
580 2 199 42 333 145 485 146 217 360 362 604 409 79 15 292 14 370 -2z"/>
<path d="M1447 2644 c-1 -1 -24 -5 -52 -8 -55 -8 -159 -32 -190 -45 -143 -60
-240 -120 -321 -197 -157 -152 -285 -386 -359 -657 -14 -53 -28 -107 -31 -120
-13 -67 -35 -187 -40 -222 -3 -22 -7 -51 -9 -65 -11 -63 -20 -240 -20 -395 0
-168 6 -239 24 -303 5 -18 10 -33 10 -35 0 -6 15 -48 37 -103 92 -227 336
-422 589 -470 22 -4 47 -10 55 -13 8 -3 632 -6 1385 -8 1469 -2 1437 -3 1594
48 124 40 248 114 331 199 43 44 110 126 110 135 0 4 8 19 19 33 10 15 30 56
44 92 23 59 34 96 55 195 10 42 9 424 -1 520 -13 130 -18 169 -22 185 -3 8 -7
33 -10 55 -3 22 -7 51 -10 65 -3 14 -8 39 -11 55 -23 133 -98 356 -164 485
-187 371 -495 573 -875 574 -80 0 -106 -11 -265 -113 -233 -149 -335 -197
-510 -242 -203 -53 -405 -42 -615 31 -132 47 -199 81 -355 181 -207 133 -227
142 -316 144 -41 0 -76 0 -77 -1z m243 -403 c183 -116 261 -155 413 -206 254
-85 467 -100 727 -51 95 18 241 67 353 119 68 32 108 55 320 190 81 51 91 55
135 51 77 -8 162 -32 237 -68 235 -111 416 -445 480 -888 3 -21 7 -53 10 -71
12 -70 15 -118 21 -312 5 -162 3 -214 -10 -275 -48 -226 -196 -367 -441 -419
-16 -3 -642 -6 -1390 -6 -1289 0 -1363 1 -1425 18 -207 59 -346 208 -385 412
-15 75 -14 347 0 495 10 94 55 341 76 420 115 411 325 646 614 687 22 3 41 6
42 7 1 1 15 2 30 2 18 0 84 -36 193 -105z"/>
</g>
</svg>
